<svg xmlns="http://www.w3.org/2000/svg" xmlns:xlink="http://www.w3.org/1999/xlink" width="1020" height="1128.92"><rect width="1020" height="1128.92" rx="0" ry="0" class="a"/><svg height="1128.92" viewBox="0 0 102 112.892" width="1020" xmlns="http://www.w3.org/2000/svg" xmlns:xlink="http://www.w3.org/1999/xlink"><style>@keyframes y{0%{transform:translateX(0)}.2%{transform:translateX(-204px)}.3%{transform:translateX(-408px)}25.1%{transform:translateX(-510px)}25.2%{transform:translateX(-612px)}25.5%{transform:translateX(-714px)}25.6%{transform:translateX(-816px)}25.7%{transform:translateX(-918px)}26.7%{transform:translateX(-1122px)}27.1%{transform:translateX(-1224px)}27.9%{transform:translateX(-1326px)}28%{transform:translateX(-1428px)}28.5%{transform:translateX(-1530px)}28.6%{transform:translateX(-1632px)}29%{transform:translateX(-1734px)}29.1%{transform:translateX(-1836px)}29.5%{transform:translateX(-1938px)}29.8%{transform:translateX(-2040px)}30.3%{transform:translateX(-2142px)}30.6%{transform:translateX(-2346px)}31.2%{transform:translateX(-2448px)}31.3%{transform:translateX(-2550px)}31.6%{transform:translateX(-2652px)}32%{transform:translateX(-2754px)}32.3%{transform:translateX(-2856px)}32.8%{transform:translateX(-2958px)}32.9%{transform:translateX(-3060px)}33.1%{transform:translateX(-3264px)}33.4%{transform:translateX(-3366px)}33.8%{transform:translateX(-3468px)}34.4%{transform:translateX(-3570px)}34.6%{transform:translateX(-3672px)}34.7%{transform:translateX(-3774px)}35.1%{transform:translateX(-3876px)}35.2%{transform:translateX(-3978px)}35.7%{transform:translateX(-4080px)}36%{transform:translateX(-4182px)}36.5%{transform:translateX(-4284px)}37%{transform:translateX(-4386px)}38.7%{transform:translateX(-4488px)}41.4%{transform:translateX(-4590px)}43.8%{transform:translateX(-4794px)}43.9%{transform:translateX(-4896px)}44.4%{transform:translateX(-5100px)}44.6%{transform:translateX(-5202px)}45%{transform:translateX(-5304px)}45.5%{transform:translateX(-5406px)}45.8%{transform:translateX(-5508px)}46.1%{transform:translateX(-5712px)}46.6%{transform:translateX(-5916px)}47.5%{transform:translateX(-6630px)}52.9%{transform:translateX(-6732px)}53%{transform:translateX(-6834px)}55.9%{transform:translateX(-6936px)}56.3%{transform:translateX(-7038px)}56.5%{transform:translateX(-7140px)}57.1%{transform:translateX(-7242px)}57.4%{transform:translateX(-7344px)}57.9%{transform:translateX(-7446px)}58.2%{transform:translateX(-7548px)}58.9%{transform:translateX(-7650px)}59%{transform:translateX(-7752px)}59.9%{transform:translateX(-7854px)}64.1%{transform:translateX(-7956px)}65.5%{transform:translateX(-8058px)}67.7%{transform:translateX(-8160px)}68.5%{transform:translateX(-8262px)}71.1%{transform:translateX(-8364px)}77%{transform:translateX(-8466px)}77.5%{transform:translateX(-8568px)}78.4%{transform:translateX(-8670px)}81.1%{transform:translateX(-8772px)}84.8%{transform:translateX(-8874px)}88.3%{transform:translateX(-8976px)}88.4%{transform:translateX(-9384px)}to{transform:translateX(-9486px)}}.a{fill:#282d35}.c{font-weight:700;text-decoration:underline}.c,.d{fill:#658594}.e{fill:#0d0c0c;font-weight:700;text-decoration:underline}.f{fill:#8ea4a2}.g{fill:#0d0c0c;font-weight:700}.h{fill:#76946a}.i{fill:#b7d0ae}.j{fill:#c5c9c5}.k{fill:#c4b28a}.l{fill:#d9a594}.m{fill:#8a9a7b}.n{fill:#c7d7e0}.o{fill:#6f7783}.p{fill:#8a9a7b;text-decoration:underline}.q{fill:#837875}.r{fill:#ab9b8e}.t{fill:#8caba1}.u{fill:#b9c0cb}.v{fill:#d2c9a5}</style><g font-size="1.67" font-family="Monaco,Consolas,Menlo,'Bitstream Vera Sans Mono','Powerline Symbols',monospace"><defs><symbol id="1"><text y="1.67" class="c"></text><path class="d" d="M1.002 0h9v2.171h-9z"/><text x="1.002" y="1.67" class="e">…/dispass</text><path class="f" d="M10.02 0h2v2.171h-2z"/><text x="10.02" y="1.67" class="d">█</text><path class="f" d="M12.024 0h7v2.171h-7z"/><text x="12.024" y="1.67" class="g"> main</text><path class="h" d="M19.038 0h2v2.171h-2z"/><text x="19.038" y="1.67" class="f">█</text><path class="h" d="M21.042 0h6v2.171h-6z"/><text x="21.042" y="1.67" class="g">+9 -9</text><path class="i" d="M27.054 0h2v2.171h-2z"/><text x="27.054" y="1.67" class="h">█</text><path class="i" d="M29.058 0h4v2.171h-4z"/><text x="29.058" y="1.67" class="g">[!]</text><text x="33.066" y="1.67" class="i">█</text><text x="35.07" y="1.67" class="j">.......................................................</text><text x="90.18" y="1.67" class="k">█</text><path class="k" d="M92.184 0h8v2.171h-8z"/><text x="92.184" y="1.67" class="g">00:27:59</text><text x="100.2" y="1.67" class="k">█</text></symbol><symbol id="2"><text y="1.67" class="d">❯❯</text></symbol><symbol id="3"><text y="1.67" class="d">❯❯</text><text x="3.006" y="1.67" class="l">i</text></symbol><symbol id="4"><text y="1.67" class="d">❯❯</text><text x="3.006" y="1.67" class="l">i</text><text x="5.01" y="1.67" class="m">hope</text></symbol><symbol id="5"><text y="1.67" class="d">❯❯</text><text x="3.006" y="1.67" class="l">i</text><text x="5.01" y="1.67" class="m">hope</text><text x="10.02" y="1.67" class="m">that</text></symbol><symbol id="6"><text y="1.67" class="d">❯❯</text><text x="3.006" y="1.67" class="l">i</text><text x="5.01" y="1.67" class="m">hope</text><text x="10.02" y="1.67" class="m">that</text><text x="15.03" y="1.67" class="m">this</text></symbol><symbol id="7"><text y="1.67" class="d">❯❯</text><text x="3.006" y="1.67" class="l">i</text><text x="5.01" y="1.67" class="m">hope</text><text x="10.02" y="1.67" class="m">that</text><text x="15.03" y="1.67" class="m">this</text><text x="20.04" y="1.67" class="m">test</text></symbol><symbol id="8"><text y="1.67" class="d">❯❯</text><text x="3.006" y="1.67" class="n">go</text><text x="6.012" y="1.67" class="o">version</text></symbol><symbol id="9"><text y="1.67" class="d">❯❯</text><text x="3.006" y="1.67" class="n">go</text><text x="6.012" y="1.67" class="m">run</text><text x="10.02" y="1.67" class="o">.</text></symbol><symbol id="10"><text y="1.67" class="d">❯❯</text><text x="3.006" y="1.67" class="n">go</text><text x="6.012" y="1.67" class="m">run</text><text x="10.02" y="1.67" class="p">.</text></symbol><symbol id="11"><text y="1.67" class="c">❯❯</text><text x="3.006" y="1.67" class="n">go</text><text x="6.012" y="1.67" class="m">run</text><text x="10.02" y="1.67" class="p">.</text><text x="90.18" y="1.67" class="k">█</text><path class="k" d="M92.184 0h8v2.171h-8z"/><text x="92.184" y="1.67" class="g">00:28:06</text><text x="100.2" y="1.67" class="k">█</text></symbol><symbol id="12"><text x="2.004" y="1.67" class="q">ctrl+c</text><text x="9.018" y="1.67" class="r">quit</text><text x="14.028" y="1.67" fill="#574851">•</text><text x="16.032" y="1.67" class="q">↵</text><text x="18.036" y="1.67" class="r">enter</text></symbol><symbol id="13"><text x="2.004" y="1.67" class="q">ctrl+c</text><text x="9.018" y="1.67" class="r">quit</text><text x="19.038" y="1.67" class="q">←↑→↓</text><text x="24.048" y="1.67" class="r">nav</text><text x="32.064" y="1.67" class="q">n</text><text x="34.068" y="1.67" class="r">new</text></symbol><symbol id="14"><text x="2.004" y="1.67" class="q">s</text><text x="4.008" y="1.67" class="q">/</text><text x="9.018" y="1.67" class="r">search</text><text x="19.038" y="1.67" class="q">↵</text><text x="24.048" y="1.67" class="r">copy</text><text x="32.064" y="1.67" class="q">d</text><text x="34.068" y="1.67" class="r">delete</text></symbol><symbol id="15"><text x="2.004" y="1.67" class="q">esc</text><text x="9.018" y="1.67" class="r">clear</text><text x="19.038" y="1.67" class="q">e</text><text x="24.048" y="1.67" class="r">edit</text><text x="32.064" y="1.67" class="q">p</text><text x="34.068" y="1.67" class="r">change</text><text x="41.082" y="1.67" class="r">master</text></symbol><symbol id="16"><text x="2.004" y="1.67" class="t">search/</text></symbol><symbol id="17"><text x="2.004" y="1.67" class="u">╭────────────────────────────────────────────╮</text></symbol><symbol id="18"><text x="2.004" y="1.67" class="u">│</text><text x="4.008" y="1.67" class="t">Source</text><text x="14.028" y="1.67" class="v">Facebook</text><text x="47.094" y="1.67" class="u">│</text></symbol><symbol id="19"><text x="2.004" y="1.67" class="u">│</text><text x="4.008" y="1.67" class="t">Username</text><text x="14.028" y="1.67" class="v">dismint</text><text x="47.094" y="1.67" class="u">│</text></symbol><symbol id="20"><text x="2.004" y="1.67" class="u">│</text><text x="4.008" y="1.67" class="t">Password</text><text x="14.028" y="1.67" class="v">▪▪▪▪▪▪▪▪▪▪▪▪▪</text><text x="47.094" y="1.67" class="u">│</text></symbol><symbol id="21"><text x="2.004" y="1.67" class="u">╰────────────────────────────────────────────╯</text></symbol><symbol id="22"><text x="2.004" y="1.67" class="t">▪</text></symbol><symbol id="23"><text x="2.004" y="1.67" class="t">&gt;</text><text x="4.008" y="1.67" class="v">Facebook</text><text x="26.052" y="1.67" class="v">dismint</text></symbol><symbol id="24"><text x="4.008" y="1.67" class="v">new</text><text x="26.052" y="1.67" class="v">thing</text></symbol><symbol id="25"><text x="4.008" y="1.67" class="v">somethi</text><text x="26.052" y="1.67" class="v">thatsometih</text></symbol><symbol id="26"><text x="2.004" y="1.67" class="u">│</text><text x="4.008" y="1.67" class="t">Source</text><text x="14.028" y="1.67" class="v">new</text><text x="47.094" y="1.67" class="u">│</text></symbol><symbol id="27"><text x="2.004" y="1.67" class="u">│</text><text x="4.008" y="1.67" class="t">Username</text><text x="14.028" y="1.67" class="v">thing</text><text x="47.094" y="1.67" class="u">│</text></symbol><symbol id="28"><text x="2.004" y="1.67" class="u">│</text><text x="4.008" y="1.67" class="t">Password</text><text x="14.028" y="1.67" class="v">▪▪▪</text><text x="47.094" y="1.67" class="u">│</text></symbol><symbol id="29"><text x="4.008" y="1.67" class="v">Facebook</text><text x="26.052" y="1.67" class="v">dismint</text></symbol><symbol id="30"><text x="2.004" y="1.67" class="t">&gt;</text><text x="4.008" y="1.67" class="v">new</text><text x="26.052" y="1.67" class="v">thing</text></symbol><symbol id="31"><text x="2.004" y="1.67" class="u">│</text><text x="4.008" y="1.67" class="t">Source</text><text x="14.028" y="1.67" class="v">somethi</text><text x="47.094" y="1.67" class="u">│</text></symbol><symbol id="32"><text x="2.004" y="1.67" class="u">│</text><text x="4.008" y="1.67" class="t">Username</text><text x="14.028" y="1.67" class="v">thatsometih</text><text x="47.094" y="1.67" class="u">│</text></symbol><symbol id="33"><text x="2.004" y="1.67" class="u">│</text><text x="4.008" y="1.67" class="t">Password</text><text x="14.028" y="1.67" class="v">▪▪▪▪▪▪▪▪▪</text><text x="47.094" y="1.67" class="u">│</text></symbol><symbol id="34"><text x="2.004" y="1.67" class="t">&gt;</text><text x="4.008" y="1.67" class="v">somethi</text><text x="26.052" y="1.67" class="v">thatsometih</text></symbol><symbol id="35"><text x="1.002" y="1.67" class="t">Password</text><text x="10.02" y="1.67" class="t">Copied</text></symbol><symbol id="36"><text y="1.67" class="c"></text><path class="d" d="M1.002 0h9v2.171h-9z"/><text x="1.002" y="1.67" class="e">…/dispass</text><path class="f" d="M10.02 0h2v2.171h-2z"/><text x="10.02" y="1.67" class="d">█</text><path class="f" d="M12.024 0h7v2.171h-7z"/><text x="12.024" y="1.67" class="g"> main</text><path class="h" d="M19.038 0h2v2.171h-2z"/><text x="19.038" y="1.67" class="f">█</text><path class="h" d="M21.042 0h6v2.171h-6z"/><text x="21.042" y="1.67" class="g">+9 -9</text><path class="i" d="M27.054 0h2v2.171h-2z"/><text x="27.054" y="1.67" class="h">█</text><path class="i" d="M29.058 0h4v2.171h-4z"/><text x="29.058" y="1.67" class="g">[!]</text><text x="33.066" y="1.67" class="i">█</text><text x="35.07" y="1.67" class="j">.......................................................</text><text x="90.18" y="1.67" class="k">█</text><path class="k" d="M92.184 0h8v2.171h-8z"/><text x="92.184" y="1.67" class="g">00:28:14</text><text x="100.2" y="1.67" class="k">█</text></symbol><symbol id="a"><path fill="transparent" d="M0 0h102v52H0z"/></symbol><symbol id="b"><path fill="#6f7683" d="M0 0h1.102v2.171H0z"/></symbol></defs><path class="a" d="M0 0h102v112.892H0z"/><g style="animation-duration:15.489388s;animation-iteration-count:infinite;animation-name:y;animation-timing-function:steps(1,end)"><svg width="9588"><svg><use xlink:href="#a"/><use xlink:href="#b" x="-.004"/></svg><svg x="102"><use xlink:href="#a"/><use xlink:href="#b" x="-.004"/></svg><svg x="204"><use xlink:href="#a"/><use xlink:href="#b" x="-.004"/></svg><svg x="306"><use xlink:href="#a"/><use xlink:href="#b" x="-.004"/></svg><svg x="408"><use xlink:href="#a"/><use xlink:href="#b" x="2.996" y="4.317"/><use xlink:href="#1" y="2.171"/><use xlink:href="#2" y="4.342"/></svg><svg x="510"><use xlink:href="#a"/><use xlink:href="#b" x="3.996" y="4.317"/><use xlink:href="#1" y="2.171"/><text y="6.012" class="d">❯❯</text><text x="3.006" y="6.012" class="u">i</text></svg><svg x="612"><use xlink:href="#a"/><use xlink:href="#b" x="3.996" y="4.317"/><use xlink:href="#1" y="2.171"/><use xlink:href="#3" y="4.342"/></svg><svg x="714"><use xlink:href="#a"/><use xlink:href="#b" x="3.996" y="4.317"/><use xlink:href="#1" y="2.171"/><text y="6.012" class="d">❯❯</text><text x="3.006" y="6.012" class="l">i</text><text x="4.008" y="6.012" class="o">386</text></svg><svg x="816"><use xlink:href="#a"/><use xlink:href="#b" x="4.996" y="4.317"/><use xlink:href="#1" y="2.171"/><use xlink:href="#3" y="4.342"/></svg><svg x="918"><use xlink:href="#a"/><use xlink:href="#b" x="4.996" y="4.317"/><use xlink:href="#1" y="2.171"/><use xlink:href="#3" y="4.342"/></svg><svg x="1020"><use xlink:href="#a"/><use xlink:href="#b" x="5.996" y="4.317"/><use xlink:href="#1" y="2.171"/><text y="6.012" class="d">❯❯</text><text x="3.006" y="6.012" class="l">i</text><text x="5.01" y="6.012" class="u">h</text></svg><svg x="1122"><use xlink:href="#a"/><use xlink:href="#b" x="5.996" y="4.317"/><use xlink:href="#1" y="2.171"/><text y="6.012" class="d">❯❯</text><text x="3.006" y="6.012" class="l">i</text><text x="5.01" y="6.012" class="m">h</text></svg><svg x="1224"><use xlink:href="#a"/><use xlink:href="#b" x="6.996" y="4.317"/><use xlink:href="#1" y="2.171"/><text y="6.012" class="d">❯❯</text><text x="3.006" y="6.012" class="l">i</text><text x="5.01" y="6.012" class="m">ho</text></svg><svg x="1326"><use xlink:href="#a"/><use xlink:href="#b" x="7.996" y="4.317"/><use xlink:href="#1" y="2.171"/><text y="6.012" class="d">❯❯</text><text x="3.006" y="6.012" class="l">i</text><text x="5.01" y="6.012" class="m">hop</text></svg><svg x="1428"><use xlink:href="#a"/><use xlink:href="#b" x="8.996" y="4.317"/><use xlink:href="#1" y="2.171"/><use xlink:href="#4" y="4.342"/></svg><svg x="1530"><use xlink:href="#a"/><use xlink:href="#b" x="9.996" y="4.317"/><use xlink:href="#1" y="2.171"/><use xlink:href="#4" y="4.342"/></svg><svg x="1632"><use xlink:href="#a"/><use xlink:href="#b" x="9.996" y="4.317"/><use xlink:href="#1" y="2.171"/><use xlink:href="#4" y="4.342"/></svg><svg x="1734"><use xlink:href="#a"/><use xlink:href="#b" x="10.996" y="4.317"/><use xlink:href="#1" y="2.171"/><text y="6.012" class="d">❯❯</text><text x="3.006" y="6.012" class="l">i</text><text x="5.01" y="6.012" class="m">hope</text><text x="10.02" y="6.012" class="u">t</text></svg><svg x="1836"><use xlink:href="#a"/><use xlink:href="#b" x="10.996" y="4.317"/><use xlink:href="#1" y="2.171"/><text y="6.012" class="d">❯❯</text><text x="3.006" y="6.012" class="l">i</text><text x="5.01" y="6.012" class="m">hope</text><text x="10.02" y="6.012" class="m">t</text></svg><svg x="1938"><use xlink:href="#a"/><use xlink:href="#b" x="11.996" y="4.317"/><use xlink:href="#1" y="2.171"/><text y="6.012" class="d">❯❯</text><text x="3.006" y="6.012" class="l">i</text><text x="5.01" y="6.012" class="m">hope</text><text x="10.02" y="6.012" class="m">th</text></svg><svg x="2040"><use xlink:href="#a"/><use xlink:href="#b" x="12.996" y="4.317"/><use xlink:href="#1" y="2.171"/><text y="6.012" class="d">❯❯</text><text x="3.006" y="6.012" class="l">i</text><text x="5.01" y="6.012" class="m">hope</text><text x="10.02" y="6.012" class="m">tha</text></svg><svg x="2142"><use xlink:href="#a"/><use xlink:href="#b" x="13.996" y="4.317"/><use xlink:href="#1" y="2.171"/><use xlink:href="#5" y="4.342"/></svg><svg x="2244"><use xlink:href="#a"/><use xlink:href="#b" x="14.996" y="4.317"/><use xlink:href="#1" y="2.171"/><use xlink:href="#5" y="4.342"/></svg><svg x="2346"><use xlink:href="#a"/><use xlink:href="#b" x="14.996" y="4.317"/><use xlink:href="#1" y="2.171"/><use xlink:href="#5" y="4.342"/></svg><svg x="2448"><use xlink:href="#a"/><use xlink:href="#b" x="15.996" y="4.317"/><use xlink:href="#1" y="2.171"/><text y="6.012" class="d">❯❯</text><text x="3.006" y="6.012" class="l">i</text><text x="5.01" y="6.012" class="m">hope</text><text x="10.02" y="6.012" class="m">that</text><text x="15.03" y="6.012" class="u">t</text></svg><svg x="2550"><use xlink:href="#a"/><use xlink:href="#b" x="15.996" y="4.317"/><use xlink:href="#1" y="2.171"/><text y="6.012" class="d">❯❯</text><text x="3.006" y="6.012" class="l">i</text><text x="5.01" y="6.012" class="m">hope</text><text x="10.02" y="6.012" class="m">that</text><text x="15.03" y="6.012" class="m">t</text></svg><svg x="2652"><use xlink:href="#a"/><use xlink:href="#b" x="16.996" y="4.317"/><use xlink:href="#1" y="2.171"/><text y="6.012" class="d">❯❯</text><text x="3.006" y="6.012" class="l">i</text><text x="5.01" y="6.012" class="m">hope</text><text x="10.02" y="6.012" class="m">that</text><text x="15.03" y="6.012" class="m">th</text></svg><svg x="2754"><use xlink:href="#a"/><use xlink:href="#b" x="17.996" y="4.317"/><use xlink:href="#1" y="2.171"/><text y="6.012" class="d">❯❯</text><text x="3.006" y="6.012" class="l">i</text><text x="5.01" y="6.012" class="m">hope</text><text x="10.02" y="6.012" class="m">that</text><text x="15.03" y="6.012" class="m">thi</text></svg><svg x="2856"><use xlink:href="#a"/><use xlink:href="#b" x="18.996" y="4.317"/><use xlink:href="#1" y="2.171"/><use xlink:href="#6" y="4.342"/></svg><svg x="2958"><use xlink:href="#a"/><use xlink:href="#b" x="19.996" y="4.317"/><use xlink:href="#1" y="2.171"/><use xlink:href="#6" y="4.342"/></svg><svg x="3060"><use xlink:href="#a"/><use xlink:href="#b" x="19.996" y="4.317"/><use xlink:href="#1" y="2.171"/><use xlink:href="#6" y="4.342"/></svg><svg x="3162"><use xlink:href="#a"/><use xlink:href="#b" x="20.996" y="4.317"/><use xlink:href="#1" y="2.171"/><text y="6.012" class="d">❯❯</text><text x="3.006" y="6.012" class="l">i</text><text x="5.01" y="6.012" class="m">hope</text><text x="10.02" y="6.012" class="m">that</text><text x="15.03" y="6.012" class="m">this</text><text x="20.04" y="6.012" class="u">t</text></svg><svg x="3264"><use xlink:href="#a"/><use xlink:href="#b" x="20.996" y="4.317"/><use xlink:href="#1" y="2.171"/><text y="6.012" class="d">❯❯</text><text x="3.006" y="6.012" class="l">i</text><text x="5.01" y="6.012" class="m">hope</text><text x="10.02" y="6.012" class="m">that</text><text x="15.03" y="6.012" class="m">this</text><text x="20.04" y="6.012" class="m">t</text></svg><svg x="3366"><use xlink:href="#a"/><use xlink:href="#b" x="21.996" y="4.317"/><use xlink:href="#1" y="2.171"/><text y="6.012" class="d">❯❯</text><text x="3.006" y="6.012" class="l">i</text><text x="5.01" y="6.012" class="m">hope</text><text x="10.02" y="6.012" class="m">that</text><text x="15.03" y="6.012" class="m">this</text><text x="20.04" y="6.012" class="m">te</text></svg><svg x="3468"><use xlink:href="#a"/><use xlink:href="#b" x="22.996" y="4.317"/><use xlink:href="#1" y="2.171"/><text y="6.012" class="d">❯❯</text><text x="3.006" y="6.012" class="l">i</text><text x="5.01" y="6.012" class="m">hope</text><text x="10.02" y="6.012" class="m">that</text><text x="15.03" y="6.012" class="m">this</text><text x="20.04" y="6.012" class="m">tes</text></svg><svg x="3570"><use xlink:href="#a"/><use xlink:href="#b" x="23.996" y="4.317"/><use xlink:href="#1" y="2.171"/><use xlink:href="#7" y="4.342"/></svg><svg x="3672"><use xlink:href="#a"/><use xlink:href="#b" x="24.996" y="4.317"/><use xlink:href="#1" y="2.171"/><use xlink:href="#7" y="4.342"/></svg><svg x="3774"><use xlink:href="#a"/><use xlink:href="#b" x="24.996" y="4.317"/><use xlink:href="#1" y="2.171"/><use xlink:href="#7" y="4.342"/></svg><svg x="3876"><use xlink:href="#a"/><use xlink:href="#b" x="25.996" y="4.317"/><use xlink:href="#1" y="2.171"/><text y="6.012" class="d">❯❯</text><text x="3.006" y="6.012" class="l">i</text><text x="5.01" y="6.012" class="m">hope</text><text x="10.02" y="6.012" class="m">that</text><text x="15.03" y="6.012" class="m">this</text><text x="20.04" y="6.012" class="m">test</text><text x="25.05" y="6.012" class="u">w</text></svg><svg x="3978"><use xlink:href="#a"/><use xlink:href="#b" x="25.996" y="4.317"/><use xlink:href="#1" y="2.171"/><text y="6.012" class="d">❯❯</text><text x="3.006" y="6.012" class="l">i</text><text x="5.01" y="6.012" class="m">hope</text><text x="10.02" y="6.012" class="m">that</text><text x="15.03" y="6.012" class="m">this</text><text x="20.04" y="6.012" class="m">test</text><text x="25.05" y="6.012" class="m">w</text></svg><svg x="4080"><use xlink:href="#a"/><use xlink:href="#b" x="26.996" y="4.317"/><use xlink:href="#1" y="2.171"/><text y="6.012" class="d">❯❯</text><text x="3.006" y="6.012" class="l">i</text><text x="5.01" y="6.012" class="m">hope</text><text x="10.02" y="6.012" class="m">that</text><text x="15.03" y="6.012" class="m">this</text><text x="20.04" y="6.012" class="m">test</text><text x="25.05" y="6.012" class="m">wo</text></svg><svg x="4182"><use xlink:href="#a"/><use xlink:href="#b" x="27.996" y="4.317"/><use xlink:href="#1" y="2.171"/><text y="6.012" class="d">❯❯</text><text x="3.006" y="6.012" class="l">i</text><text x="5.01" y="6.012" class="m">hope</text><text x="10.02" y="6.012" class="m">that</text><text x="15.03" y="6.012" class="m">this</text><text x="20.04" y="6.012" class="m">test</text><text x="25.05" y="6.012" class="m">wor</text></svg><svg x="4284"><use xlink:href="#a"/><use xlink:href="#b" x="28.996" y="4.317"/><use xlink:href="#1" y="2.171"/><text y="6.012" class="d">❯❯</text><text x="3.006" y="6.012" class="l">i</text><text x="5.01" y="6.012" class="m">hope</text><text x="10.02" y="6.012" class="m">that</text><text x="15.03" y="6.012" class="m">this</text><text x="20.04" y="6.012" class="m">test</text><text x="25.05" y="6.012" class="m">work</text></svg><svg x="4386"><use xlink:href="#a"/><use xlink:href="#b" x="29.996" y="4.317"/><use xlink:href="#1" y="2.171"/><text y="6.012" class="d">❯❯</text><text x="3.006" y="6.012" class="l">i</text><text x="5.01" y="6.012" class="m">hope</text><text x="10.02" y="6.012" class="m">that</text><text x="15.03" y="6.012" class="m">this</text><text x="20.04" y="6.012" class="m">test</text><text x="25.05" y="6.012" class="m">works</text></svg><svg x="4488"><use xlink:href="#a"/><use xlink:href="#b" x="30.996" y="4.317"/><use xlink:href="#1" y="2.171"/><text y="6.012" class="d">❯❯</text><text x="3.006" y="6.012" class="l">i</text><text x="5.01" y="6.012" class="m">hope</text><text x="10.02" y="6.012" class="m">that</text><text x="15.03" y="6.012" class="m">this</text><text x="20.04" y="6.012" class="m">test</text><text x="25.05" y="6.012" class="m">works!</text></svg><svg x="4590"><use xlink:href="#a"/><use xlink:href="#b" x="2.996" y="4.317"/><use xlink:href="#1" y="2.171"/><use xlink:href="#2" y="4.342"/></svg><svg x="4692"><use xlink:href="#a"/><use xlink:href="#b" x="3.996" y="4.317"/><use xlink:href="#1" y="2.171"/><text y="6.012" class="d">❯❯</text><text x="3.006" y="6.012" class="u">g</text></svg><svg x="4794"><use xlink:href="#a"/><use xlink:href="#b" x="3.996" y="4.317"/><use xlink:href="#1" y="2.171"/><text y="6.012" class="d">❯❯</text><text x="3.006" y="6.012" class="u">g</text><text x="4.008" y="6.012" class="o">it</text><text x="7.014" y="6.012" class="o">status</text></svg><svg x="4896"><use xlink:href="#a"/><use xlink:href="#b" x="3.996" y="4.317"/><use xlink:href="#1" y="2.171"/><text y="6.012" class="d">❯❯</text><text x="3.006" y="6.012" class="l">g</text><text x="4.008" y="6.012" class="o">it</text><text x="7.014" y="6.012" class="o">status</text></svg><svg x="4998"><use xlink:href="#a"/><use xlink:href="#b" x="4.996" y="4.317"/><use xlink:href="#1" y="2.171"/><text y="6.012" class="d">❯❯</text><text x="3.006" y="6.012" class="l">go</text></svg><svg x="5100"><use xlink:href="#a"/><use xlink:href="#b" x="4.996" y="4.317"/><use xlink:href="#1" y="2.171"/><use xlink:href="#8" y="4.342"/></svg><svg x="5202"><use xlink:href="#a"/><use xlink:href="#b" x="5.996" y="4.317"/><use xlink:href="#1" y="2.171"/><use xlink:href="#8" y="4.342"/></svg><svg x="5304"><use xlink:href="#a"/><use xlink:href="#b" x="6.996" y="4.317"/><use xlink:href="#1" y="2.171"/><text y="6.012" class="d">❯❯</text><text x="3.006" y="6.012" class="n">go</text><text x="6.012" y="6.012" class="m">r</text><text x="7.014" y="6.012" class="o">un</text><text x="10.02" y="6.012" class="o">.</text></svg><svg x="5406"><use xlink:href="#a"/><use xlink:href="#b" x="7.996" y="4.317"/><use xlink:href="#1" y="2.171"/><text y="6.012" class="d">❯❯</text><text x="3.006" y="6.012" class="n">go</text><text x="6.012" y="6.012" class="m">ru</text><text x="8.016" y="6.012" class="o">n</text><text x="10.02" y="6.012" class="o">.</text></svg><svg x="5508"><use xlink:href="#a"/><use xlink:href="#b" x="8.996" y="4.317"/><use xlink:href="#1" y="2.171"/><use xlink:href="#9" y="4.342"/></svg><svg x="5610"><use xlink:href="#a"/><use xlink:href="#b" x="9.996" y="4.317"/><use xlink:href="#1" y="2.171"/><use xlink:href="#9" y="4.342"/></svg><svg x="5712"><use xlink:href="#a"/><use xlink:href="#b" x="9.996" y="4.317"/><use xlink:href="#1" y="2.171"/><use xlink:href="#9" y="4.342"/></svg><svg x="5814"><use xlink:href="#a"/><use xlink:href="#b" x="10.996" y="4.317"/><use xlink:href="#1" y="2.171"/><text y="6.012" class="d">❯❯</text><text x="3.006" y="6.012" class="n">go</text><text x="6.012" y="6.012" class="m">run</text><text x="10.02" y="6.012" class="u">.</text></svg><svg x="5916"><use xlink:href="#a"/><use xlink:href="#b" x="10.996" y="4.317"/><use xlink:href="#1" y="2.171"/><use xlink:href="#10" y="4.342"/></svg><svg x="6018"><use xlink:href="#a"/><use xlink:href="#b" x="10.996" y="4.317"/><use xlink:href="#1" y="2.171"/><use xlink:href="#10" y="4.342"/></svg><svg x="6120"><use xlink:href="#a"/><use xlink:href="#b" x="10.996" y="4.317"/><use xlink:href="#1" y="2.171"/><use xlink:href="#10" y="4.342"/></svg><svg x="6222"><use xlink:href="#a"/><use xlink:href="#b" x="-.004" y="4.317"/><use xlink:href="#1" y="2.171"/><use xlink:href="#10" y="4.342"/></svg><svg x="6324"><use xlink:href="#a"/><use xlink:href="#b" x="10.996"/><use xlink:href="#11"/></svg><svg x="6426"><use xlink:href="#a"/><use xlink:href="#b" x="10.996"/><use xlink:href="#11"/></svg><svg x="6528"><use xlink:href="#a"/><use xlink:href="#b" x="-.004" y="2.146"/><use xlink:href="#11"/></svg><svg x="6630"><use xlink:href="#a"/><use xlink:href="#b" x="-.004" y="2.146"/><use xlink:href="#11"/></svg><svg x="6732"><use xlink:href="#a"/><use xlink:href="#11"/></svg><svg x="6834"><use xlink:href="#a"/><use xlink:href="#11"/><use xlink:href="#12" y="4.342"/><text x="2.004" y="10.354" class="t">Master</text><text x="10.02" y="10.354" class="t">»</text><path class="t" d="M12.024 8.684h1v2.171h-1z"/><text x="12.024" y="10.354" class="a"></text></svg><svg x="6936"><use xlink:href="#a"/><use xlink:href="#11"/><use xlink:href="#12" y="4.342"/><text x="2.004" y="10.354" class="t">Master</text><text x="10.02" y="10.354" class="t">»</text><text x="12.024" y="10.354" class="v">▪</text><path class="t" d="M13.026 8.684h1v2.171h-1z"/><text x="13.026" y="10.354" class="a"></text></svg><svg x="7038"><use xlink:href="#a"/><use xlink:href="#11"/><use xlink:href="#12" y="4.342"/><text x="2.004" y="10.354" class="t">Master</text><text x="10.02" y="10.354" class="t">»</text><text x="12.024" y="10.354" class="v">▪▪</text><path class="t" d="M14.028 8.684h1v2.171h-1z"/><text x="14.028" y="10.354" class="a"></text></svg><svg x="7140"><use xlink:href="#a"/><use xlink:href="#11"/><use xlink:href="#12" y="4.342"/><text x="2.004" y="10.354" class="t">Master</text><text x="10.02" y="10.354" class="t">»</text><text x="12.024" y="10.354" class="v">▪▪▪</text><path class="t" d="M15.03 8.684h1v2.171h-1z"/><text x="15.03" y="10.354" class="a"></text></svg><svg x="7242"><use xlink:href="#a"/><use xlink:href="#11"/><use xlink:href="#12" y="4.342"/><text x="2.004" y="10.354" class="t">Master</text><text x="10.02" y="10.354" class="t">»</text><text x="12.024" y="10.354" class="v">▪▪▪▪</text><path class="t" d="M16.032 8.684h1v2.171h-1z"/><text x="16.032" y="10.354" class="a"></text></svg><svg x="7344"><use xlink:href="#a"/><use xlink:href="#11"/><use xlink:href="#12" y="4.342"/><text x="2.004" y="10.354" class="t">Master</text><text x="10.02" y="10.354" class="t">»</text><text x="12.024" y="10.354" class="v">▪▪▪▪▪</text><path class="t" d="M17.034 8.684h1v2.171h-1z"/><text x="17.034" y="10.354" class="a"></text></svg><svg x="7446"><use xlink:href="#a"/><use xlink:href="#11"/><use xlink:href="#12" y="4.342"/><text x="2.004" y="10.354" class="t">Master</text><text x="10.02" y="10.354" class="t">»</text><text x="12.024" y="10.354" class="v">▪▪▪▪▪▪</text><path class="t" d="M18.036 8.684h1v2.171h-1z"/><text x="18.036" y="10.354" class="a"></text></svg><svg x="7548"><use xlink:href="#a"/><use xlink:href="#11"/><use xlink:href="#12" y="4.342"/><text x="2.004" y="10.354" class="t">Master</text><text x="10.02" y="10.354" class="t">»</text><text x="12.024" y="10.354" class="v">▪▪▪▪▪▪▪</text><path class="t" d="M19.038 8.684h1v2.171h-1z"/><text x="19.038" y="10.354" class="a"></text></svg><svg x="7650"><use xlink:href="#a"/><use xlink:href="#11"/><use xlink:href="#12" y="4.342"/><text x="2.004" y="10.354" class="t">Master</text><text x="10.02" y="10.354" class="t">»</text><text x="12.024" y="10.354" class="v">▪▪▪▪▪▪▪▪</text><path class="t" d="M20.04 8.684h1v2.171h-1z"/><text x="20.04" y="10.354" class="a"></text></svg><svg x="7752"><use xlink:href="#a"/><use xlink:href="#11"/><use xlink:href="#12" y="4.342"/><text x="2.004" y="10.354" class="t">Master</text><text x="10.02" y="10.354" class="t">»</text><text x="12.024" y="10.354" class="v">▪▪▪▪▪▪▪▪▪</text><path class="t" d="M21.042 8.684h1v2.171h-1z"/><text x="21.042" y="10.354" class="a"></text></svg><svg x="7854"><use xlink:href="#a"/><use xlink:href="#11"/><use xlink:href="#13" y="4.342"/><use xlink:href="#14" y="6.513"/><use xlink:href="#15" y="8.684"/><use xlink:href="#16" y="13.026"/><use xlink:href="#17" y="17.368"/><use xlink:href="#18" y="19.539"/><use xlink:href="#19" y="21.71"/><use xlink:href="#20" y="23.881"/><use xlink:href="#21" y="26.052"/><use xlink:href="#22" y="30.394"/><use xlink:href="#23" y="34.736"/><use xlink:href="#24" y="36.907"/><use xlink:href="#25" y="39.078"/></svg><svg x="7956"><use xlink:href="#a"/><use xlink:href="#11"/><use xlink:href="#13" y="4.342"/><use xlink:href="#14" y="6.513"/><use xlink:href="#15" y="8.684"/><use xlink:href="#16" y="13.026"/><use xlink:href="#17" y="17.368"/><use xlink:href="#26" y="19.539"/><use xlink:href="#27" y="21.71"/><use xlink:href="#28" y="23.881"/><use xlink:href="#21" y="26.052"/><use xlink:href="#22" y="30.394"/><use xlink:href="#29" y="34.736"/><use xlink:href="#30" y="36.907"/><use xlink:href="#25" y="39.078"/></svg><svg x="8058"><use xlink:href="#a"/><use xlink:href="#11"/><use xlink:href="#13" y="4.342"/><use xlink:href="#14" y="6.513"/><use xlink:href="#15" y="8.684"/><use xlink:href="#16" y="13.026"/><use xlink:href="#17" y="17.368"/><use xlink:href="#31" y="19.539"/><use xlink:href="#32" y="21.71"/><use xlink:href="#33" y="23.881"/><use xlink:href="#21" y="26.052"/><use xlink:href="#22" y="30.394"/><use xlink:href="#29" y="34.736"/><use xlink:href="#24" y="36.907"/><use xlink:href="#34" y="39.078"/></svg><svg x="8160"><use xlink:href="#a"/><use xlink:href="#11"/><use xlink:href="#13" y="4.342"/><use xlink:href="#14" y="6.513"/><use xlink:href="#15" y="8.684"/><use xlink:href="#16" y="13.026"/><use xlink:href="#17" y="17.368"/><use xlink:href="#26" y="19.539"/><use xlink:href="#27" y="21.71"/><use xlink:href="#28" y="23.881"/><use xlink:href="#21" y="26.052"/><use xlink:href="#22" y="30.394"/><use xlink:href="#29" y="34.736"/><use xlink:href="#30" y="36.907"/><use xlink:href="#25" y="39.078"/></svg><svg x="8262"><use xlink:href="#a"/><use xlink:href="#11"/><use xlink:href="#13" y="4.342"/><use xlink:href="#14" y="6.513"/><use xlink:href="#15" y="8.684"/><use xlink:href="#16" y="13.026"/><use xlink:href="#17" y="17.368"/><use xlink:href="#18" y="19.539"/><use xlink:href="#19" y="21.71"/><use xlink:href="#20" y="23.881"/><use xlink:href="#21" y="26.052"/><use xlink:href="#22" y="30.394"/><use xlink:href="#23" y="34.736"/><use xlink:href="#24" y="36.907"/><use xlink:href="#25" y="39.078"/></svg><svg x="8364"><use xlink:href="#a"/><use xlink:href="#11"/><use xlink:href="#13" y="4.342"/><use xlink:href="#14" y="6.513"/><use xlink:href="#15" y="8.684"/><use xlink:href="#16" y="13.026"/><use xlink:href="#17" y="17.368"/><use xlink:href="#18" y="19.539"/><use xlink:href="#19" y="21.71"/><use xlink:href="#20" y="23.881"/><use xlink:href="#21" y="26.052"/><use xlink:href="#22" y="30.394"/><use xlink:href="#23" y="34.736"/><use xlink:href="#24" y="36.907"/><use xlink:href="#25" y="39.078"/><use xlink:href="#35" y="45.591"/></svg><svg x="8466"><use xlink:href="#a"/><use xlink:href="#11"/><use xlink:href="#13" y="4.342"/><use xlink:href="#14" y="6.513"/><use xlink:href="#15" y="8.684"/><use xlink:href="#16" y="13.026"/><use xlink:href="#17" y="17.368"/><use xlink:href="#26" y="19.539"/><use xlink:href="#27" y="21.71"/><use xlink:href="#28" y="23.881"/><use xlink:href="#21" y="26.052"/><use xlink:href="#22" y="30.394"/><use xlink:href="#29" y="34.736"/><use xlink:href="#30" y="36.907"/><use xlink:href="#25" y="39.078"/><use xlink:href="#35" y="45.591"/></svg><svg x="8568"><use xlink:href="#a"/><use xlink:href="#11"/><use xlink:href="#13" y="4.342"/><use xlink:href="#14" y="6.513"/><use xlink:href="#15" y="8.684"/><use xlink:href="#16" y="13.026"/><use xlink:href="#17" y="17.368"/><use xlink:href="#26" y="19.539"/><use xlink:href="#27" y="21.71"/><use xlink:href="#28" y="23.881"/><use xlink:href="#21" y="26.052"/><use xlink:href="#22" y="30.394"/><use xlink:href="#29" y="34.736"/><use xlink:href="#30" y="36.907"/><use xlink:href="#25" y="39.078"/></svg><svg x="8670"><use xlink:href="#a"/><use xlink:href="#11"/><use xlink:href="#13" y="4.342"/><use xlink:href="#14" y="6.513"/><use xlink:href="#15" y="8.684"/><use xlink:href="#16" y="13.026"/><use xlink:href="#17" y="17.368"/><use xlink:href="#26" y="19.539"/><use xlink:href="#27" y="21.71"/><use xlink:href="#28" y="23.881"/><use xlink:href="#21" y="26.052"/><use xlink:href="#22" y="30.394"/><use xlink:href="#29" y="34.736"/><use xlink:href="#30" y="36.907"/><use xlink:href="#25" y="39.078"/><use xlink:href="#35" y="45.591"/></svg><svg x="8772"><use xlink:href="#a"/><use xlink:href="#11"/><use xlink:href="#13" y="4.342"/><use xlink:href="#14" y="6.513"/><use xlink:href="#15" y="8.684"/><use xlink:href="#16" y="13.026"/><use xlink:href="#17" y="17.368"/><use xlink:href="#31" y="19.539"/><use xlink:href="#32" y="21.71"/><use xlink:href="#33" y="23.881"/><use xlink:href="#21" y="26.052"/><use xlink:href="#22" y="30.394"/><use xlink:href="#29" y="34.736"/><use xlink:href="#24" y="36.907"/><use xlink:href="#34" y="39.078"/><use xlink:href="#35" y="45.591"/></svg><svg x="8874"><use xlink:href="#a"/><use xlink:href="#11"/><use xlink:href="#13" y="4.342"/><use xlink:href="#14" y="6.513"/><use xlink:href="#15" y="8.684"/><use xlink:href="#16" y="13.026"/><use xlink:href="#17" y="17.368"/><use xlink:href="#31" y="19.539"/><use xlink:href="#32" y="21.71"/><use xlink:href="#33" y="23.881"/><use xlink:href="#21" y="26.052"/><use xlink:href="#22" y="30.394"/><use xlink:href="#29" y="34.736"/><use xlink:href="#24" y="36.907"/><use xlink:href="#34" y="39.078"/></svg><svg x="8976"><use xlink:href="#a"/><use xlink:href="#b" x="-.004" y="2.146"/><use xlink:href="#11"/></svg><svg x="9078"><use xlink:href="#a"/><use xlink:href="#b" x="-.004" y="2.146"/><use xlink:href="#11"/></svg><svg x="9180"><use xlink:href="#a"/><use xlink:href="#b" x="-.004" y="2.146"/><use xlink:href="#11"/></svg><svg x="9282"><use xlink:href="#a"/><use xlink:href="#b" x="-.004" y="2.146"/><use xlink:href="#11"/></svg><svg x="9384"><use xlink:href="#a"/><use xlink:href="#b" x="2.996" y="6.488"/><use xlink:href="#11"/><use xlink:href="#36" y="4.342"/><use xlink:href="#2" y="6.513"/></svg><svg x="9486"><use xlink:href="#a"/><use xlink:href="#b" x="-.004" y="8.659"/><use xlink:href="#11"/><use xlink:href="#36" y="4.342"/><use xlink:href="#2" y="6.513"/></svg></svg></g></g></svg></svg>